<?xml version="1.0" standalone="no"?>
<!DOCTYPE svg PUBLIC "-//W3C//DTD SVG 20010904//EN"
 "http://www.w3.org/TR/2001/REC-SVG-20010904/DTD/svg10.dtd">
<svg version="1.0" xmlns="http://www.w3.org/2000/svg"
 width="786.000000pt" height="638.000000pt" viewBox="0 0 786.000000 638.000000"
 preserveAspectRatio="xMidYMid meet">

<g transform="translate(0.000000,638.000000) scale(0.100000,-0.100000)"
fill="#000000" stroke="none">
<path d="M6787 6373 c-3 -5 -8 -23 -12 -40 -5 -25 -3 -33 7 -33 9 0 14 14 15
40 2 39 -1 48 -10 33z"/>
<path d="M4298 6353 c7 -3 16 -2 19 1 4 3 -2 6 -13 5 -11 0 -14 -3 -6 -6z"/>
<path d="M6472 6256 c-2 -70 -5 -87 -14 -78 -7 7 -13 24 -14 40 -3 55 -5 57
-19 31 -12 -22 -23 -27 -68 -32 -30 -3 -82 -3 -115 0 -44 4 -68 1 -92 -11 -18
-9 -62 -21 -98 -27 -53 -9 -66 -9 -73 2 -5 8 -9 9 -9 3 0 -14 -171 -27 -184
-14 -5 5 -22 4 -43 -5 -18 -8 -33 -11 -33 -8 0 3 -7 -1 -16 -8 -14 -11 -18
-11 -28 3 -8 11 -17 13 -28 7 -9 -5 -27 -8 -40 -7 -37 2 -180 -12 -213 -22
-16 -5 -102 -21 -190 -35 -88 -15 -203 -38 -255 -50 -52 -13 -120 -27 -150
-30 -30 -4 -106 -20 -168 -36 -103 -28 -114 -29 -134 -14 -19 12 -19 15 -5 15
22 0 22 30 0 31 -51 3 -92 -5 -129 -26 -22 -12 -55 -26 -72 -30 -18 -3 -34
-11 -37 -16 -7 -11 -45 -12 -45 -1 1 6 24 25 85 66 16 12 17 16 6 29 -7 9 -10
21 -6 27 4 6 -5 20 -19 31 -15 11 -24 25 -21 30 8 12 -7 11 -42 -2 -23 -8 -30
-7 -40 7 -21 29 -15 51 20 73 17 11 28 21 24 21 -22 0 -158 -82 -345 -207
-145 -98 -166 -105 -122 -43 20 28 159 137 260 203 30 20 64 45 75 56 11 10
45 33 75 51 l55 32 -40 -6 c-74 -10 -225 -97 -519 -301 -50 -35 -89 -55 -107
-55 -18 0 -32 -7 -39 -20 -6 -11 -15 -20 -20 -20 -6 0 -10 9 -10 20 0 24 -42
27 -80 5 -32 -18 -40 -18 -40 -1 0 21 64 73 99 81 17 4 29 11 25 16 -19 31
-119 -19 -278 -140 -66 -50 -124 -91 -128 -91 -5 0 -30 -9 -55 -21 -67 -30
-106 -35 -123 -13 -12 13 -12 18 -2 21 17 6 15 43 -3 43 -8 0 -15 4 -15 9 0
14 41 41 63 41 10 0 29 8 43 17 20 13 30 14 44 5 10 -6 26 -9 36 -6 11 2 39 6
64 8 25 2 47 5 50 5 3 1 -2 6 -10 11 -8 5 -36 10 -62 10 -26 0 -50 5 -53 10
-5 8 -11 8 -19 1 -8 -7 -49 -9 -105 -6 -68 4 -93 2 -96 -7 -3 -7 -24 -14 -48
-16 -23 -1 -57 -8 -75 -15 -27 -9 -35 -9 -42 3 -17 26 -11 36 37 74 29 23 57
36 76 36 26 0 28 2 16 16 -18 21 -83 11 -124 -20 -16 -13 -45 -31 -64 -41 -32
-16 -36 -16 -62 -1 -22 13 -41 15 -80 10 -35 -5 -53 -3 -58 5 -12 18 -56 -3
-92 -44 -34 -38 -49 -44 -49 -19 0 11 -5 14 -16 10 -9 -3 -18 -6 -20 -6 -2 0
-4 -7 -4 -15 0 -8 -7 -15 -15 -15 -8 0 -15 -4 -15 -9 0 -10 -61 -82 -105 -124
-70 -67 -100 -84 -159 -91 -10 -1 -27 -18 -36 -36 l-18 -34 -7 71 c-4 40 -4
85 0 102 6 30 -6 43 -20 21 -17 -28 -26 -5 -22 59 4 61 2 70 -14 74 -14 4 -19
14 -19 40 0 55 -12 127 -21 127 -5 0 -9 -22 -9 -48 0 -27 -2 -51 -5 -54 -11
-11 -55 5 -56 21 0 10 -4 6 -10 -9 -6 -14 -9 -69 -8 -122 2 -54 0 -101 -4
-104 -13 -13 -7 -44 7 -44 8 0 17 -12 19 -27 4 -26 4 -26 6 4 1 37 20 83 33
83 5 0 6 -24 3 -52 -3 -29 -8 -75 -11 -102 -4 -35 -13 -57 -30 -75 -25 -25
-25 -25 -56 -6 -22 13 -33 15 -36 7 -6 -18 -31 -15 -67 8 -82 51 -223 75 -271
47 -80 -46 -136 -129 -209 -305 -29 -73 -52 -132 -50 -132 4 0 -2 -19 -44
-130 -12 -30 -21 -64 -21 -76 0 -11 -11 -52 -24 -90 -19 -52 -29 -70 -45 -72
-13 -2 -21 2 -21 11 0 9 -5 17 -12 19 -14 5 -194 -46 -349 -99 -105 -35 -113
-40 -127 -73 -10 -25 -11 -39 -3 -51 7 -13 6 -20 -5 -30 -8 -7 -14 -22 -12
-33 3 -23 7 -23 98 -11 l55 7 2 -46 c1 -25 -2 -46 -5 -46 -4 0 -16 -7 -26 -15
-15 -11 -16 -18 -8 -28 9 -11 5 -18 -18 -36 -22 -15 -30 -30 -30 -51 0 -27 3
-30 33 -30 20 0 41 -8 51 -19 9 -10 35 -21 56 -25 38 -6 39 -7 34 -39 -4 -17
-12 -41 -20 -53 -12 -21 -113 -64 -184 -79 -19 -4 -46 -15 -60 -25 -14 -9 -41
-22 -60 -29 -133 -44 -75 -141 60 -100 19 5 59 12 88 14 30 2 61 10 70 18 17
15 75 30 70 18 -61 -135 -102 -185 -143 -175 -30 8 -74 -14 -54 -27 8 -5 26
-6 41 -3 42 8 36 -17 -18 -77 -33 -37 -42 -55 -35 -62 6 -6 11 -19 11 -28 0
-10 9 -21 20 -24 31 -10 24 -23 -15 -31 -19 -3 -35 -10 -35 -15 0 -15 63 -68
81 -69 8 0 37 14 64 31 65 41 96 52 109 39 5 -5 22 -10 36 -10 20 0 31 -9 48
-39 24 -43 68 -66 109 -58 35 7 102 -39 103 -69 0 -23 34 -58 67 -68 24 -8 43
-52 43 -100 0 -17 -12 -62 -25 -101 -79 -223 -98 -295 -76 -295 16 0 13 -40
-4 -46 -10 -4 -12 -15 -8 -37 7 -33 35 -61 86 -87 55 -27 55 -40 7 -137 -25
-48 -51 -92 -57 -96 -7 -4 -13 -17 -13 -27 0 -10 -15 -54 -34 -97 -19 -43 -37
-88 -41 -100 -15 -50 -25 -18 -25 79 0 56 -3 98 -7 94 -4 -4 -10 -58 -13 -119
-5 -100 -9 -117 -34 -155 -26 -42 -27 -45 -10 -63 16 -18 15 -22 -16 -93 -17
-41 -43 -85 -56 -97 -29 -27 -32 -59 -5 -59 17 0 18 -5 14 -43 -4 -23 -11 -44
-16 -46 -6 -2 16 -14 49 -26 l59 -22 55 20 c30 11 62 26 71 33 13 11 17 11 31
-5 12 -14 13 -22 5 -30 -8 -8 -5 -11 12 -11 22 0 23 -3 19 -38 l-6 -38 46 6
c25 4 49 14 54 24 14 25 59 19 95 -14 18 -16 33 -36 33 -43 0 -22 10 -25 40
-14 24 9 32 8 50 -8 13 -12 17 -22 11 -28 -5 -5 -7 -16 -4 -23 5 -15 -13 -44
-28 -44 -5 0 -14 10 -21 23 -7 12 -21 23 -30 23 -21 2 -21 6 -4 -44 24 -66 6
-93 -59 -91 -11 0 -33 -3 -49 -7 -25 -6 -28 -4 -23 10 4 9 2 16 -4 16 -6 0
-16 -13 -22 -29 -10 -26 -15 -29 -53 -28 -32 2 -48 -4 -66 -21 -14 -12 -31
-22 -38 -22 -11 0 -11 -3 -2 -12 9 -9 5 -17 -14 -34 -33 -31 -62 -46 -74 -39
-16 10 -50 -5 -50 -21 0 -17 -10 -19 94 16 l88 30 19 -21 c19 -22 19 -22 -13
-45 l-32 -24 30 0 c54 0 58 -14 12 -45 -24 -16 -45 -31 -47 -32 -2 -2 4 -12
14 -23 18 -19 18 -19 48 2 26 19 35 20 69 11 34 -9 43 -8 71 11 18 12 52 29
78 37 44 15 46 15 70 -11 14 -14 29 -39 33 -55 4 -17 9 -38 12 -47 3 -10 0
-18 -6 -18 -18 0 -83 -30 -77 -36 3 -3 19 2 36 10 46 24 71 21 71 -10 0 -14 4
-23 9 -19 14 8 25 -35 13 -47 -14 -14 -3 -70 15 -81 7 -5 10 -13 7 -19 -5 -8
6 -9 36 -5 32 4 52 0 79 -14 20 -10 42 -19 49 -19 20 0 123 -70 117 -80 -3 -4
2 -11 11 -14 8 -3 13 -10 9 -15 -3 -6 -12 -8 -20 -4 -8 3 -15 0 -15 -5 0 -6
-8 -13 -17 -15 -10 -3 2 -5 26 -6 l44 -1 -6 -49 c-4 -34 -2 -51 6 -54 19 -7
-29 -47 -56 -47 -13 0 -32 -7 -43 -15 -17 -13 -13 -14 53 -15 39 0 79 -3 89
-7 15 -6 16 -1 10 50 -6 49 -5 57 13 66 17 10 24 5 52 -34 32 -44 57 -55 51
-21 -4 24 35 20 50 -5 7 -11 49 -39 93 -61 60 -31 94 -41 140 -44 l60 -4 -49
14 c-47 14 -76 37 -55 44 5 2 24 -1 41 -7 38 -14 75 -14 80 -1 4 11 72 -10 90
-28 17 -17 3 -25 -20 -13 -33 17 -44 14 -32 -9 8 -15 21 -20 51 -20 43 0 41 6
23 -73 -4 -17 -2 -27 5 -27 6 0 11 5 11 10 0 6 15 10 34 10 35 0 71 -24 61
-41 -4 -5 1 -9 9 -9 8 0 18 -9 21 -21 9 -29 25 -20 61 34 23 35 29 55 26 78
-4 29 -2 31 16 27 23 -6 38 6 43 36 5 24 59 35 59 12 0 -21 67 -86 89 -86 12
0 17 7 15 22 -1 13 -3 24 -4 26 -2 1 -3 5 -4 10 -1 4 -5 13 -9 20 -13 20 31
15 63 -8 24 -17 29 -18 40 -5 7 8 8 15 2 15 -5 0 -9 11 -9 25 0 13 3 23 6 20
4 -2 30 6 57 19 27 12 77 28 111 35 34 6 75 18 90 26 47 25 76 19 93 -18 13
-29 15 -30 18 -9 2 12 8 22 13 22 5 0 14 11 19 25 13 35 45 32 82 -7 29 -31
29 -33 14 -65 -9 -18 -13 -33 -10 -33 2 0 22 17 43 38 47 45 60 48 104 22 31
-18 37 -19 67 -6 29 12 41 12 82 -1 27 -7 53 -11 58 -8 6 4 23 -3 40 -15 31
-22 49 -19 90 15 27 22 58 24 76 4 13 -14 14 -22 5 -33 -17 -20 28 -30 50 -10
30 27 99 -6 85 -42 -4 -12 -1 -14 14 -9 16 5 20 2 20 -19 0 -16 17 -42 48 -74
37 -38 47 -54 40 -66 -14 -25 15 -20 44 8 35 32 54 37 83 24 18 -8 25 -19 25
-40 0 -36 18 -36 61 1 27 24 31 32 21 44 -6 7 -9 17 -5 20 3 4 1 7 -5 7 -6 0
-12 -14 -14 -32 -4 -45 -24 -46 -33 -2 -7 40 -1 52 33 57 12 2 32 13 45 25 16
16 36 22 66 22 31 0 51 7 73 25 35 30 68 32 75 6 8 -33 30 -32 108 4 41 19 78
35 81 35 4 0 29 16 57 36 30 22 57 34 68 31 11 -3 17 -1 13 4 -3 5 3 9 13 9
15 0 16 2 3 10 -12 8 -6 18 35 52 27 24 76 71 109 106 44 47 64 61 78 56 15
-4 22 1 30 24 8 21 25 36 52 48 23 10 45 20 50 22 4 2 5 -5 1 -17 -9 -30 -81
-107 -113 -121 -31 -13 -88 -78 -60 -67 10 3 20 1 24 -4 10 -17 -45 -67 -89
-82 -23 -7 -43 -19 -45 -25 -6 -20 70 -14 107 9 28 17 38 19 56 9 18 -10 29
-8 59 8 l38 20 -28 4 c-15 2 -29 9 -32 16 -6 21 68 82 100 82 35 0 36 -17 2
-30 -14 -6 -23 -14 -20 -18 8 -13 66 -2 66 12 0 14 42 56 56 56 5 0 20 9 34
20 27 21 60 26 60 10 0 -5 -4 -10 -9 -10 -5 0 -21 -16 -36 -36 l-27 -36 33 3
c57 4 69 0 69 -21 0 -24 18 -27 27 -5 10 27 59 46 87 35 22 -8 26 -16 26 -52
0 -56 9 -88 25 -88 14 0 125 107 125 121 0 5 20 39 45 76 48 71 58 98 25 68
-11 -10 -18 -21 -15 -25 6 -10 -74 -112 -98 -125 -12 -6 -23 -21 -25 -33 -3
-16 -10 -22 -29 -22 -21 0 -24 4 -20 21 3 12 1 33 -4 47 -7 18 -5 40 7 81 10
31 20 61 24 66 4 6 10 23 14 39 9 38 45 88 57 81 5 -4 9 5 9 19 0 14 4 26 9
26 6 0 20 18 32 40 l22 39 29 -20 c15 -11 28 -16 28 -10 0 5 9 12 19 16 14 4
17 12 14 28 -5 18 -3 20 8 10 15 -15 33 -17 24 -4 -3 5 -1 12 5 16 5 3 10 15
10 26 0 10 5 19 10 19 6 0 10 -16 10 -35 0 -41 16 -46 32 -10 11 23 87 73 89
57 1 -4 2 -11 4 -17 1 -5 3 -15 3 -21 3 -22 34 -24 73 -7 35 15 54 43 30 43
-5 0 -12 7 -15 16 -4 11 9 31 42 63 52 50 62 84 30 112 -10 9 -18 21 -18 28 0
10 47 17 93 13 21 -2 22 16 1 46 -15 22 -14 22 25 22 23 0 41 -4 41 -10 0 -5
7 -10 15 -10 11 0 12 -5 5 -24 -7 -19 -5 -26 8 -31 15 -6 26 4 22 21 -2 13 54
34 74 29 15 -5 17 -4 7 3 -7 5 -11 15 -7 21 4 6 -4 13 -19 17 -37 9 -31 24 10
24 19 0 37 0 40 0 3 0 5 -3 4 -7 -1 -11 30 -25 42 -18 5 4 33 4 61 0 34 -5 46
-10 37 -16 -22 -14 18 -12 43 2 20 11 21 12 4 24 -15 11 -15 16 -4 34 7 12 20
21 28 21 15 1 50 23 50 32 0 6 -76 -7 -102 -17 -10 -4 -18 -3 -18 3 0 13 50
46 75 49 97 13 105 15 95 28 -5 6 -12 27 -14 46 -2 19 -4 38 -5 43 0 4 -8 5
-16 2 -11 -4 -19 3 -25 20 -6 14 -10 27 -10 29 0 2 17 1 37 -2 30 -5 35 -3 30
9 -4 13 6 17 54 22 33 4 67 10 75 13 23 8 16 23 -10 23 -14 0 -27 4 -31 9 -8
13 33 25 80 22 38 -2 38 -1 22 17 -26 28 -21 35 21 28 36 -5 36 -5 10 7 l-27
13 48 46 c32 31 50 58 53 78 6 43 -9 37 -28 -10 -17 -41 -105 -130 -129 -130
-8 0 -17 5 -20 10 -4 6 -16 8 -27 4 -12 -4 -24 0 -32 11 -12 16 -15 16 -37 2
-28 -18 -90 -10 -97 12 -4 11 3 13 27 8 22 -5 31 -3 31 7 0 7 11 23 25 36 14
13 25 29 25 37 0 7 11 15 25 19 21 5 23 9 14 25 -7 14 -6 19 3 19 18 0 69 45
61 54 -3 3 -15 6 -25 6 -10 0 -18 4 -18 9 0 13 27 21 73 21 35 0 44 4 54 25
10 22 9 25 -7 25 -25 0 -50 10 -50 21 0 5 6 9 14 9 8 0 18 5 22 11 5 8 -1 10
-20 7 -31 -6 -32 -4 -6 24 26 28 10 39 -47 31 -46 -6 -55 4 -25 29 26 23 50
28 76 18 16 -6 27 -5 35 3 7 7 31 12 53 12 36 0 42 3 43 23 1 13 -4 26 -12 29
-8 3 -12 12 -9 19 3 8 1 14 -4 14 -6 0 -10 -6 -10 -13 0 -8 -13 -11 -44 -9
-38 3 -43 6 -40 27 3 30 52 95 70 95 13 0 19 -25 17 -69 -1 -8 2 -10 9 -3 5 5
10 23 10 40 1 26 6 31 33 36 17 4 61 6 96 6 69 -1 135 12 152 29 8 8 8 11 -1
11 -19 0 -14 28 6 33 9 3 -1 4 -23 3 -22 -1 -45 -5 -52 -9 -6 -4 -24 -7 -40
-7 -53 0 -123 -12 -123 -21 0 -5 -11 -9 -25 -9 -14 0 -25 2 -25 5 0 7 29 41
88 101 28 30 52 59 52 64 0 5 24 34 53 64 41 43 50 58 42 70 -13 21 12 64 53
91 25 17 29 26 28 61 -1 24 -8 50 -18 60 -17 19 -15 74 3 74 5 0 9 9 9 20 0
21 -33 60 -50 60 -13 0 -13 23 1 37 13 13 22 97 15 137 -4 17 -13 39 -20 49
-13 17 -17 17 -85 -2 -40 -10 -95 -33 -122 -50 -28 -17 -54 -31 -58 -31 -4 0
-23 -14 -42 -31 -37 -33 -88 -63 -95 -56 -6 6 50 89 70 106 22 19 30 86 13
111 l-14 20 -27 -21 c-41 -32 -43 -15 -3 33 19 24 38 53 41 65 4 13 12 22 17
20 6 -1 18 8 26 21 15 21 14 22 -16 22 -17 0 -31 -3 -31 -8 0 -4 -13 -13 -30
-20 -34 -15 -42 -43 -10 -35 33 9 24 -18 -24 -72 -43 -48 -71 -59 -44 -16 11
17 10 25 -1 44 -52 81 -46 122 31 203 40 43 48 57 39 68 -8 10 -8 16 2 24 15
13 15 58 -1 74 -7 7 -19 4 -42 -12 -27 -20 -30 -24 -16 -32 27 -15 18 -36 -29
-63 -53 -31 -78 -25 -44 11 20 21 21 28 11 45 -11 17 -10 23 10 39 13 11 28
19 34 20 12 0 54 44 77 82 12 20 28 28 60 33 42 7 44 8 33 31 -13 27 -28 31
-46 9 -7 -8 -24 -21 -39 -28 -108 -57 -167 -89 -176 -98 -18 -18 -31 -8 -51
39 -18 42 -24 48 -49 48 -15 -1 -30 4 -32 11 -6 18 33 52 54 47 11 -3 28 5 42
20 14 14 33 26 43 26 36 0 18 28 -22 35 -37 6 -56 24 -27 26 6 0 2 4 -10 9
-20 8 -22 12 -11 35 10 23 17 25 70 25 33 0 58 4 58 10 0 19 -31 23 -91 10
-52 -11 -62 -11 -75 2 -16 16 -23 112 -10 125 4 5 40 7 80 6 59 -2 76 0 89 15
8 9 16 22 16 27 0 6 19 11 41 13 34 3 45 9 60 35 11 18 20 44 20 58 0 16 9 32
23 42 20 14 17 14 -30 2 -40 -11 -59 -11 -83 -2 -37 14 -38 22 -2 41 l27 14
-28 11 c-15 6 -39 14 -52 17 -14 3 -25 9 -25 13 0 3 -30 6 -66 7 -46 1 -70 6
-81 17 -15 15 -14 17 13 27 16 6 59 22 96 37 45 17 75 23 93 19 24 -6 26 -8
11 -19 -13 -10 -4 -11 49 -9 56 3 65 6 65 23 0 10 -13 25 -29 34 -49 25 -50
39 -3 31 34 -5 40 -3 36 8 -7 19 -57 36 -105 36 -22 0 -39 5 -39 10 0 13 58
13 140 -1 45 -7 73 -18 91 -35 31 -29 49 -32 23 -3 -33 37 -73 50 -175 58 -55
4 -102 11 -106 14 -3 4 -1 7 5 7 7 0 12 4 12 9 0 5 -24 12 -52 15 -29 4 -58
12 -65 18 -7 6 -22 8 -33 5 -12 -3 -20 0 -20 7 0 21 74 39 130 33 29 -4 50 -2
50 3 0 6 -7 10 -15 10 -8 0 -15 3 -15 8 0 4 -21 6 -46 4 -39 -4 -46 -1 -51 17
-4 14 -13 21 -30 21 -22 0 -24 -2 -13 -15 11 -13 7 -15 -22 -15 -45 0 -48 4
-35 46 6 21 17 34 28 34 17 0 29 19 29 47 0 13 -9 15 -56 9 -51 -6 -56 -5 -52
12 4 12 -1 18 -14 19 -10 1 -16 -2 -13 -8 7 -10 -10 -12 -42 -3 -13 4 -23 13
-23 20 0 8 -13 17 -30 21 -36 7 -39 18 -7 28 l22 8 -22 4 c-15 3 -23 12 -23
24 0 21 15 26 25 8 10 -15 45 19 45 43 0 11 -7 18 -20 18 -26 0 -25 8 2 31 11
11 16 19 10 19 -19 0 -2 33 41 77 37 39 42 63 13 63 -7 0 -20 18 -30 40 -10
22 -22 40 -27 40 -6 0 -8 4 -5 9 3 5 -1 14 -9 21 -7 6 -11 18 -8 26 12 32 -32
6 -101 -61 -79 -76 -136 -118 -162 -121 -13 -1 -24 2 -24 8 0 5 -9 7 -20 3
-11 -3 -28 -2 -37 4 -10 6 -12 11 -5 11 6 0 12 4 12 9 0 5 -13 9 -30 9 -16 -1
-30 -5 -30 -10 0 -5 -11 -14 -25 -20 -14 -6 -25 -17 -25 -25 0 -7 -7 -13 -15
-13 -15 0 -20 16 -16 57 2 22 -29 40 -48 28 -6 -3 -15 3 -20 14 -7 13 -18 17
-31 14 -11 -3 -17 -9 -14 -14 5 -9 -14 -13 -56 -9 -33 3 -35 6 -15 26 11 12
13 19 5 24 -12 8 2 22 34 34 15 5 16 9 6 21 -13 16 -45 21 -36 6 3 -4 -3 -16
-14 -26 -19 -18 -20 -17 -20 8 0 15 -4 27 -9 27 -5 0 -9 -17 -8 -37 1 -25 -4
-40 -17 -47 -10 -6 -30 -21 -44 -33 -38 -32 -85 -31 -100 2 -11 23 -8 30 31
71 42 45 92 74 129 74 10 0 28 8 39 19 15 13 31 17 65 15 27 -2 42 0 39 6 -9
15 12 48 36 55 l21 7 -22 23 -22 24 35 6 c20 4 38 13 41 21 4 10 22 14 60 14
64 0 86 7 86 26 0 8 8 15 18 15 51 4 -125 16 -190 13 -42 -2 -80 1 -83 5 -7
12 51 41 81 41 13 0 25 4 29 9 7 12 175 10 175 -1 0 -5 10 -8 23 -8 18 0 19 2
7 10 -13 8 -12 11 5 25 11 8 35 22 53 30 19 8 36 24 39 35 3 11 10 20 15 20 6
0 4 7 -3 16 -7 9 -16 53 -20 98 l-6 81 -1 -89z m-843 -200 c9 -11 8 -17 -4
-29 -9 -10 -11 -18 -5 -22 21 -13 8 -25 -42 -40 -55 -16 -75 -12 -45 10 23 16
12 22 -33 19 -24 -1 -41 -10 -56 -29 -15 -19 -23 -23 -26 -14 -3 10 -22 6 -76
-18 -58 -26 -83 -31 -129 -29 -44 2 -65 -2 -86 -17 -20 -13 -37 -17 -58 -13
-19 3 -39 0 -52 -8 -23 -15 -120 -19 -111 -4 3 4 0 8 -5 8 -6 0 -11 -3 -11 -8
0 -17 -48 -35 -107 -38 -64 -4 -109 8 -98 27 4 5 -3 9 -14 9 -11 0 -25 9 -31
20 -13 24 5 35 77 44 29 4 71 14 95 22 25 9 86 17 148 19 101 3 282 36 305 55
6 5 20 9 30 8 11 -1 46 4 77 11 69 15 168 20 174 9 3 -5 12 -1 20 7 19 19 48
19 63 1z m-159 -154 c0 -10 -88 -49 -130 -57 -87 -15 -110 -17 -110 -6 0 6 12
13 28 16 15 3 61 16 102 29 80 26 110 31 110 18z m-4296 -704 c8 -38 4 -43
-23 -28 -24 12 -27 30 -9 48 19 19 25 15 32 -20z m-690 -1164 c8 -20 -18 -46
-37 -38 -23 9 -28 32 -9 43 25 15 39 13 46 -5z m6456 -2111 c-1 -12 -52 -59
-72 -66 -12 -4 -21 3 -33 25 -8 17 -15 32 -15 34 0 2 19 5 43 7 23 2 50 4 60
5 9 1 17 -1 17 -5z m-197 -342 c14 -6 28 -20 32 -32 10 -31 -18 -49 -76 -49
-63 0 -76 20 -40 61 27 31 44 35 84 20z m-859 -511 c-3 -46 -4 -49 -24 -60
-19 -10 -20 -9 -14 14 5 20 2 26 -9 26 -20 0 -29 14 -21 35 5 11 16 15 38 13
26 -3 31 -7 30 -28z m-64 -103 c0 -10 5 -15 10 -12 21 13 9 -19 -16 -41 -30
-29 -48 -31 -39 -5 3 11 1 22 -5 26 -13 8 -13 51 1 77 l11 21 19 -24 c10 -13
19 -32 19 -42z m-996 -473 c10 -26 7 -31 -23 -43 -28 -12 -44 -34 -56 -79 -7
-24 -49 -46 -72 -38 -7 3 -13 14 -13 24 0 10 -5 23 -10 28 -13 13 8 34 85 84
67 44 80 47 89 24z m40 -72 c7 -12 -7 -29 -31 -36 -16 -5 -23 -3 -23 6 0 28
41 50 54 30z"/>
<path d="M4932 5925 c-6 -14 -8 -25 -4 -25 4 0 12 11 19 25 6 14 8 25 4 25 -4
0 -13 -11 -19 -25z"/>
<path d="M4258 6223 c6 -2 18 -2 25 0 6 3 1 5 -13 5 -14 0 -19 -2 -12 -5z"/>
<path d="M2580 6075 c7 -8 22 -15 34 -15 20 1 20 2 -4 15 -33 19 -46 19 -30 0z"/>
<path d="M6500 6018 c0 -16 5 -28 10 -28 13 0 13 20 0 40 -8 12 -10 9 -10 -12z"/>
<path d="M6350 6010 c0 -5 4 -10 9 -10 6 0 13 5 16 10 3 6 -1 10 -9 10 -9 0
-16 -4 -16 -10z"/>
<path d="M2528 5993 c6 -2 18 -2 25 0 6 3 1 5 -13 5 -14 0 -19 -2 -12 -5z"/>
<path d="M6535 5960 c28 -12 57 -12 50 0 -3 6 -21 10 -38 9 -27 0 -29 -2 -12
-9z"/>
<path d="M1895 5939 c-4 -6 -5 -12 -2 -15 2 -3 7 2 10 11 7 17 1 20 -8 4z"/>
<path d="M2698 5923 c7 -3 16 -2 19 1 4 3 -2 6 -13 5 -11 0 -14 -3 -6 -6z"/>
<path d="M6756 5874 c-5 -14 -4 -15 9 -4 17 14 19 20 6 20 -5 0 -12 -7 -15
-16z"/>
<path d="M6569 5822 c-4 -22 5 -58 15 -64 36 -23 86 5 63 35 -12 18 -76 41
-78 29z"/>
<path d="M6180 5743 c0 -26 0 -26 20 -8 16 14 17 20 8 27 -22 13 -28 9 -28
-19z"/>
<path d="M1280 5730 c-11 -7 -4 -10 25 -10 29 0 36 3 25 10 -8 5 -19 10 -25
10 -5 0 -17 -5 -25 -10z"/>
<path d="M6315 5640 c-3 -5 -2 -10 4 -10 5 0 13 5 16 10 3 6 2 10 -4 10 -5 0
-13 -4 -16 -10z"/>
<path d="M6346 5634 c-9 -23 12 -44 43 -44 l26 0 -26 18 c-14 9 -24 23 -22 30
7 18 -14 15 -21 -4z"/>
<path d="M6795 5590 c-3 -6 1 -7 9 -4 18 7 21 14 7 14 -6 0 -13 -4 -16 -10z"/>
<path d="M6844 5463 c3 -10 8 -31 12 -46 4 -19 10 -25 16 -19 12 12 -8 82 -23
82 -6 0 -8 -8 -5 -17z"/>
<path d="M6704 5393 c3 -8 6 -19 6 -25 0 -6 6 -6 15 2 21 17 19 27 -6 33 -15
4 -19 2 -15 -10z"/>
<path d="M6710 5340 c0 -8 -7 -27 -14 -42 -8 -15 -12 -29 -8 -31 4 -1 32 0 62
4 30 3 47 6 38 7 -21 2 -22 6 -8 33 9 17 7 19 -18 19 -15 0 -33 5 -40 12 -9 9
-12 9 -12 -2z"/>
<path d="M6990 5230 c-11 -7 -7 -10 17 -10 17 0 35 5 38 10 8 13 -35 13 -55 0z"/>
<path d="M6914 5184 c4 -10 1 -21 -6 -25 -7 -4 -10 -11 -6 -14 10 -11 49 19
46 35 -2 8 -12 16 -22 18 -15 3 -17 0 -12 -14z"/>
<path d="M6966 5185 c4 -8 10 -12 15 -9 11 6 2 24 -11 24 -5 0 -7 -7 -4 -15z"/>
<path d="M7296 5101 c-3 -4 6 -6 19 -3 14 2 25 6 25 8 0 8 -39 4 -44 -5z"/>
<path d="M7095 5012 c17 -5 29 -13 28 -20 -2 -7 7 -12 20 -12 13 0 28 -5 34
-11 7 -7 12 -6 16 5 8 21 -16 33 -78 40 -32 3 -39 2 -20 -2z"/>
<path d="M7246 4724 c-8 -21 -8 -24 4 -24 6 0 10 6 10 14 0 8 10 17 23 19 20
4 19 4 -4 6 -16 0 -29 -5 -33 -15z"/>
<path d="M7140 4629 c0 -5 5 -7 10 -4 6 3 10 8 10 11 0 2 -4 4 -10 4 -5 0 -10
-5 -10 -11z"/>
<path d="M420 3870 c-8 -5 -32 -10 -52 -10 -37 0 -57 -13 -38 -25 14 -8 131
25 124 36 -7 11 -15 11 -34 -1z"/>
<path d="M448 3413 c-10 -2 -18 -8 -18 -13 0 -8 57 6 69 16 6 5 -29 3 -51 -3z"/>
<path d="M320 3320 c0 -5 5 -10 11 -10 5 0 7 5 4 10 -3 6 -8 10 -11 10 -2 0
-4 -4 -4 -10z"/>
<path d="M545 3140 c-8 -13 5 -13 25 0 13 8 13 10 -2 10 -9 0 -20 -4 -23 -10z"/>
<path d="M7585 2800 c-3 -5 1 -10 9 -10 9 0 16 5 16 10 0 6 -4 10 -9 10 -6 0
-13 -4 -16 -10z"/>
<path d="M7840 2770 c0 -5 5 -10 10 -10 6 0 10 5 10 10 0 6 -4 10 -10 10 -5 0
-10 -4 -10 -10z"/>
<path d="M7690 2655 c-20 -24 -6 -28 15 -5 10 11 13 20 8 20 -6 0 -16 -7 -23
-15z"/>
<path d="M7375 2410 c27 -12 43 -12 25 0 -8 5 -22 9 -30 9 -10 0 -8 -3 5 -9z"/>
<path d="M7397 2363 c-4 -3 -7 -11 -7 -17 0 -6 5 -5 12 2 6 6 9 14 7 17 -3 3
-9 2 -12 -2z"/>
<path d="M7403 2253 c-16 -6 -17 -53 -3 -53 6 0 20 9 31 19 30 28 11 50 -28
34z"/>
<path d="M7153 1970 c-9 -16 -23 -30 -29 -30 -6 0 -14 -14 -16 -30 l-5 -30 29
27 c21 20 31 24 37 15 5 -9 15 -4 34 16 19 20 24 31 17 42 -8 13 -10 13 -10
-1 0 -9 -9 -24 -20 -34 -22 -20 -25 -10 -10 29 13 36 -5 33 -27 -4z"/>
<path d="M7130 1700 c-11 -7 -7 -10 18 -10 17 0 32 5 32 10 0 13 -30 13 -50 0z"/>
<path d="M7254 1699 c-3 -6 -2 -14 4 -18 5 -3 12 -32 15 -63 6 -55 5 -57 -24
-67 -16 -5 -56 -13 -89 -17 -33 -4 -60 -10 -60 -15 0 -14 148 -7 154 7 3 8 12
11 20 8 10 -4 13 -15 9 -37 -4 -25 1 -37 21 -56 l27 -25 -7 70 c-4 51 -1 81
10 113 17 46 11 60 -22 61 -7 0 -18 11 -24 25 -12 27 -23 31 -34 14z"/>
<path d="M7670 1604 c0 -8 5 -12 10 -9 6 3 10 10 10 16 0 5 -4 9 -10 9 -5 0
-10 -7 -10 -16z"/>
<path d="M7685 1574 c-40 -33 -227 -104 -276 -104 -12 0 -19 -3 -16 -6 8 -9
166 24 242 51 45 15 63 28 78 53 11 18 18 35 16 37 -2 2 -22 -12 -44 -31z"/>
<path d="M7735 1550 c-3 -5 -2 -10 4 -10 5 0 13 5 16 10 3 6 2 10 -4 10 -5 0
-13 -4 -16 -10z"/>
<path d="M6970 1446 c0 -14 5 -26 10 -26 6 0 10 9 10 19 0 11 -4 23 -10 26 -6
4 -10 -5 -10 -19z"/>
<path d="M6998 1404 c-3 -2 -23 -5 -46 -7 -46 -5 -46 -4 -37 -29 5 -13 18 -18
46 -18 32 0 39 4 39 19 0 11 8 21 18 23 15 3 15 4 0 10 -9 4 -18 5 -20 2z"/>
<path d="M366 1371 c-4 -7 -5 -15 -2 -18 9 -9 19 4 14 18 -4 11 -6 11 -12 0z"/>
<path d="M6852 1318 c2 -6 10 -14 18 -16 7 -3 10 0 6 6 -3 6 4 12 16 15 16 3
13 5 -10 6 -22 1 -32 -3 -30 -11z"/>
<path d="M6742 1308 c-6 -6 -12 -19 -12 -27 0 -13 2 -13 16 1 9 9 15 21 13 27
-3 9 -8 8 -17 -1z"/>
<path d="M7088 1313 c6 -2 18 -2 25 0 6 3 1 5 -13 5 -14 0 -19 -2 -12 -5z"/>
<path d="M6900 1272 c0 -6 6 -12 13 -15 9 -3 8 -8 -3 -22 -13 -16 -13 -18 0
-13 18 6 20 50 3 56 -7 2 -13 -1 -13 -6z"/>
<path d="M6615 1250 c3 -5 10 -10 16 -10 5 0 9 5 9 10 0 6 -7 10 -16 10 -8 0
-12 -4 -9 -10z"/>
<path d="M6400 1236 c0 -2 7 -6 15 -10 8 -3 15 -1 15 4 0 6 -7 10 -15 10 -8 0
-15 -2 -15 -4z"/>
<path d="M6690 1220 c0 -5 5 -10 11 -10 5 0 7 5 4 10 -3 6 -8 10 -11 10 -2 0
-4 -4 -4 -10z"/>
<path d="M6690 1156 c0 -22 19 -29 36 -15 12 10 12 14 2 20 -20 13 -38 10 -38
-5z"/>
<path d="M6820 1150 c-9 -6 -10 -10 -3 -10 6 0 15 5 18 10 8 12 4 12 -15 0z"/>
<path d="M6535 1090 c-4 -6 -3 -16 3 -22 6 -6 12 -6 17 2 4 6 3 16 -3 22 -6 6
-12 6 -17 -2z"/>
<path d="M6467 1009 c-4 -28 -3 -59 2 -67 6 -10 11 4 16 43 4 33 3 61 -3 67
-6 6 -11 -10 -15 -43z"/>
<path d="M6170 885 c0 -28 13 -45 28 -36 10 6 8 13 -7 32 -19 22 -20 23 -21 4z"/>
<path d="M5891 846 c-8 -9 -8 -16 -2 -20 5 -4 13 0 18 7 4 8 15 17 23 20 10 4
8 6 -6 6 -12 1 -27 -5 -33 -13z"/>
<path d="M1490 612 c0 -5 7 -15 15 -22 8 -7 15 -8 15 -2 0 5 -7 15 -15 22 -8
7 -15 8 -15 2z"/>
<path d="M3002 340 c-13 -22 -5 -30 20 -21 14 5 14 9 4 23 -11 15 -13 15 -24
-2z"/>
<path d="M2918 333 c6 -2 18 -2 25 0 6 3 1 5 -13 5 -14 0 -19 -2 -12 -5z"/>
<path d="M4595 259 c-4 -6 -5 -12 -2 -15 2 -3 7 2 10 11 7 17 1 20 -8 4z"/>
<path d="M4565 200 c-3 -5 -1 -10 4 -10 6 0 11 5 11 10 0 6 -2 10 -4 10 -3 0
-8 -4 -11 -10z"/>
</g>
</svg>
